# xmcd CD database file
#
# Track frame offsets:
#	150
#	13830
#	24756
#	38090
#	49419
#	62724
#	77068
#	87883
#	101755
#	115407
#	128760
#	141735
#	165387
#	179342
#	192625
#	206484
#	219019
#	233338
#	247085
#	261207
#
# Disc length: 3664 seconds
#
# Revision: 3
# Processed by: cddbd v1.5.2PL0 Copyright (c) Steve Scherf et al.
# Submitted via: CDex 1.51
#
DISCID=170e4e14
DTITLE=Roy Brown - Hard Luck And Good Rocking  {1947-1950}
DYEAR=2002
DGENRE=Blues
TTITLE0=Good Rocking Tonight   [1947]
TTITLE1=Lolly Pop Mama   [1947]
TTITLE2=Special Lesson Number 1   [1947]
TTITLE3=Mighty Might Man   [1947]
TTITLE4=Miss Fanny Brown   [1947]
TTITLE5=Long 'Bout Midnight   [1948]
TTITLE6=Rainy Weather Blues   [1948]
TTITLE7=Roy Brown Boogie   [1948]
TTITLE8=Fore Day In The Morning   [1948]
TTITLE9=Boogie At Midnight   [1949]
TTITLE10=End Of My Journey   [1949]
TTITLE11=Butcher Pete  (Part 1 and 2)   [1949]
TTITLE12=Hard Luck Blues   [1950]
TTITLE13=Cadillac Baby   [1950]
TTITLE14=Sweet Peach   [1950]
TTITLE15=Love Don't Love Nobody   [1950]
TTITLE16=Dreaming Blues   [1950]
TTITLE17=Teen Age Jamboree   [1950]
TTITLE18=Bar Room Blues   [1950]
TTITLE19=Double Crossin' Woman   [1950]
EXTD=YEAR: 2002
EXTT0=
EXTT1=
EXTT2=
EXTT3=
EXTT4=
EXTT5=
EXTT6=
EXTT7=
EXTT8=
EXTT9=
EXTT10=
EXTT11=
EXTT12=
EXTT13=
EXTT14=
EXTT15=
EXTT16=
EXTT17=
EXTT18=
EXTT19=
PLAYORDER=
